<?xml version="1.0" encoding="UTF-8" standalone="no"?>
<svg
   xmlns:dc="http://purl.org/dc/elements/1.1/"
   xmlns:cc="http://creativecommons.org/ns#"
   xmlns:rdf="http://www.w3.org/1999/02/22-rdf-syntax-ns#"
   xmlns:svg="http://www.w3.org/2000/svg"
   xmlns="http://www.w3.org/2000/svg"
   viewBox="0 0 385.86667 221.04134"
   height="221.04134"
   width="385.86667"
   xml:space="preserve"
   id="svg2"
   version="1.1"><metadata
     id="metadata8"><rdf:RDF><cc:Work
         rdf:about=""><dc:format>image/svg+xml</dc:format><dc:type
           rdf:resource="http://purl.org/dc/dcmitype/StillImage" /></cc:Work></rdf:RDF></metadata><defs
     id="defs6"><clipPath
       id="clipPath14"
       clipPathUnits="userSpaceOnUse"><path
         id="path12"
         d="M 0,0 H 595 V 842 H 0 Z" /></clipPath><clipPath
       id="clipPath28"
       clipPathUnits="userSpaceOnUse"><path
         id="path26"
         d="M -1,-1 H 16.343 V 12.764 H -1 Z" /></clipPath><clipPath
       id="clipPath236"
       clipPathUnits="userSpaceOnUse"><path
         id="path234"
         d="M -1,-1 H 13.774 V 12.764 H -1 Z" /></clipPath><clipPath
       id="clipPath272"
       clipPathUnits="userSpaceOnUse"><path
         id="path270"
         d="M -1,-1 H 56.063 V 11.627 H -1 Z" /></clipPath><clipPath
       id="clipPath304"
       clipPathUnits="userSpaceOnUse"><path
         id="path302"
         d="M -1,-1 H 67.381 V 12.799 H -1 Z" /></clipPath><clipPath
       id="clipPath542"
       clipPathUnits="userSpaceOnUse"><path
         id="path540"
         d="M -1,-1 H 7.161 V 9.856 H -1 Z" /></clipPath><clipPath
       id="clipPath584"
       clipPathUnits="userSpaceOnUse"><path
         id="path582"
         d="M -1,-1 H 23.803 V 12.955 H -1 Z" /></clipPath><clipPath
       id="clipPath622"
       clipPathUnits="userSpaceOnUse"><path
         id="path620"
         d="M -1,-1 H 34.441 V 13.464 H -1 Z" /></clipPath></defs><g
     clip-path="url(#clipPath14)"
     transform="matrix(1.3333333,0,0,-1.3333333,-84.4,1054.5093)"
     id="g10"><g
       id="g16"><path
         id="path18"
         style="fill:none;stroke:#000000;stroke-width:0.40000001;stroke-linecap:butt;stroke-linejoin:round;stroke-miterlimit:10;stroke-dasharray:4;stroke-dashoffset:0;stroke-opacity:1"
         d="m 192,704 c 0,35.346 -28.654,64 -64,64 -35.3462,0 -64,-28.654 -64,-64 0,-35.346 28.6538,-64 64,-64 35.346,0 64,28.654 64,64" /></g><g
       transform="translate(120.329,778.118)"
       id="g20"><g
         id="g22"><g
           clip-path="url(#clipPath28)"
           id="g24"><g
             transform="translate(0,-780.236)"
             id="g30"><text
               id="text34"
               style="font-variant:normal;font-weight:normal;font-size:17.2154007px;font-family:CMMI12;-inkscape-font-specification:CMMI12;writing-mode:lr-tb;fill:#000000;fill-opacity:1;fill-rule:nonzero;stroke:none"
               transform="matrix(1,0,0,-1,0,780.236)"><tspan
                 id="tspan32"
                 y="0"
                 x="0">X</tspan></text>
</g></g></g></g><g
       id="g36"><g
         id="g38"><path
           id="path40"
           style="fill:#000080;fill-opacity:1;fill-rule:evenodd;stroke:none"
           d="m 117.8,756 c 0,0.994 -0.806,1.8 -1.8,1.8 -0.994,0 -1.8,-0.806 -1.8,-1.8 0,-0.994 0.806,-1.8 1.8,-1.8 0.994,0 1.8,0.806 1.8,1.8" /></g></g><g
       id="g42"><g
         id="g44"><path
           id="path46"
           style="fill:#000080;fill-opacity:1;fill-rule:evenodd;stroke:none"
           d="m 101.8,724 c 0,0.994 -0.806,1.8 -1.8,1.8 -0.9941,0 -1.8,-0.806 -1.8,-1.8 0,-0.994 0.8059,-1.8 1.8,-1.8 0.994,0 1.8,0.806 1.8,1.8" /></g></g><g
       id="g48"><g
         id="g50"><path
           id="path52"
           style="fill:#000080;fill-opacity:1;fill-rule:evenodd;stroke:none"
           d="m 97.8,708 c 0,0.994 -0.8059,1.8 -1.8,1.8 -0.9941,0 -1.8,-0.806 -1.8,-1.8 0,-0.994 0.8059,-1.8 1.8,-1.8 0.9941,0 1.8,0.806 1.8,1.8" /></g></g><g
       id="g54"><g
         id="g56"><path
           id="path58"
           style="fill:#000080;fill-opacity:1;fill-rule:evenodd;stroke:none"
           d="m 109.8,692 c 0,0.994 -0.806,1.8 -1.8,1.8 -0.994,0 -1.8,-0.806 -1.8,-1.8 0,-0.994 0.806,-1.8 1.8,-1.8 0.994,0 1.8,0.806 1.8,1.8" /></g></g><g
       id="g60"><g
         id="g62"><path
           id="path64"
           style="fill:#000080;fill-opacity:1;fill-rule:evenodd;stroke:none"
           d="m 109.8,708 c 0,0.994 -0.806,1.8 -1.8,1.8 -0.994,0 -1.8,-0.806 -1.8,-1.8 0,-0.994 0.806,-1.8 1.8,-1.8 0.994,0 1.8,0.806 1.8,1.8" /></g></g><g
       id="g66"><g
         id="g68"><path
           id="path70"
           style="fill:#000080;fill-opacity:1;fill-rule:evenodd;stroke:none"
           d="m 117.8,700 c 0,0.994 -0.806,1.8 -1.8,1.8 -0.994,0 -1.8,-0.806 -1.8,-1.8 0,-0.994 0.806,-1.8 1.8,-1.8 0.994,0 1.8,0.806 1.8,1.8" /></g></g><g
       id="g72"><g
         id="g74"><path
           id="path76"
           style="fill:#000080;fill-opacity:1;fill-rule:evenodd;stroke:none"
           d="m 113.8,740 c 0,0.994 -0.806,1.8 -1.8,1.8 -0.994,0 -1.8,-0.806 -1.8,-1.8 0,-0.994 0.806,-1.8 1.8,-1.8 0.994,0 1.8,0.806 1.8,1.8" /></g></g><g
       id="g78"><g
         id="g80"><path
           id="path82"
           style="fill:#000080;fill-opacity:1;fill-rule:evenodd;stroke:none"
           d="m 105.8,748 c 0,0.994 -0.806,1.8 -1.8,1.8 -0.994,0 -1.8,-0.806 -1.8,-1.8 0,-0.994 0.806,-1.8 1.8,-1.8 0.994,0 1.8,0.806 1.8,1.8" /></g></g><g
       id="g84"><g
         id="g86"><path
           id="path88"
           style="fill:#000080;fill-opacity:1;fill-rule:evenodd;stroke:none"
           d="m 101.8,736 c 0,0.994 -0.806,1.8 -1.8,1.8 -0.9941,0 -1.8,-0.806 -1.8,-1.8 0,-0.994 0.8059,-1.8 1.8,-1.8 0.994,0 1.8,0.806 1.8,1.8" /></g></g><g
       id="g90"><g
         id="g92"><path
           id="path94"
           style="fill:#000080;fill-opacity:1;fill-rule:evenodd;stroke:none"
           d="m 137.8,752 c 0,0.994 -0.806,1.8 -1.8,1.8 -0.994,0 -1.8,-0.806 -1.8,-1.8 0,-0.994 0.806,-1.8 1.8,-1.8 0.994,0 1.8,0.806 1.8,1.8" /></g></g><g
       id="g96"><g
         id="g98"><path
           id="path100"
           style="fill:#000080;fill-opacity:1;fill-rule:evenodd;stroke:none"
           d="m 125.8,748 c 0,0.994 -0.806,1.8 -1.8,1.8 -0.994,0 -1.8,-0.806 -1.8,-1.8 0,-0.994 0.806,-1.8 1.8,-1.8 0.994,0 1.8,0.806 1.8,1.8" /></g></g><g
       id="g102"><g
         id="g104"><path
           id="path106"
           style="fill:#000080;fill-opacity:1;fill-rule:evenodd;stroke:none"
           d="m 161.8,736 c 0,0.994 -0.806,1.8 -1.8,1.8 -0.994,0 -1.8,-0.806 -1.8,-1.8 0,-0.994 0.806,-1.8 1.8,-1.8 0.994,0 1.8,0.806 1.8,1.8" /></g></g><g
       id="g108"><g
         id="g110"><path
           id="path112"
           style="fill:#000080;fill-opacity:1;fill-rule:evenodd;stroke:none"
           d="m 145.8,744 c 0,0.994 -0.806,1.8 -1.8,1.8 -0.994,0 -1.8,-0.806 -1.8,-1.8 0,-0.994 0.806,-1.8 1.8,-1.8 0.994,0 1.8,0.806 1.8,1.8" /></g></g><g
       id="g114"><g
         id="g116"><path
           id="path118"
           style="fill:#000080;fill-opacity:1;fill-rule:evenodd;stroke:none"
           d="m 161.8,744 c 0,0.994 -0.806,1.8 -1.8,1.8 -0.994,0 -1.8,-0.806 -1.8,-1.8 0,-0.994 0.806,-1.8 1.8,-1.8 0.994,0 1.8,0.806 1.8,1.8" /></g></g><g
       id="g120"><g
         id="g122"><path
           id="path124"
           style="fill:#000080;fill-opacity:1;fill-rule:evenodd;stroke:none"
           d="m 153.8,752 c 0,0.994 -0.806,1.8 -1.8,1.8 -0.994,0 -1.8,-0.806 -1.8,-1.8 0,-0.994 0.806,-1.8 1.8,-1.8 0.994,0 1.8,0.806 1.8,1.8" /></g></g><g
       id="g126"><g
         id="g128"><path
           id="path130"
           style="fill:#8b0000;fill-opacity:1;fill-rule:evenodd;stroke:none"
           d="m 85.8,668 c 0,0.994 -0.8059,1.8 -1.8,1.8 -0.9941,0 -1.8,-0.806 -1.8,-1.8 0,-0.994 0.8059,-1.8 1.8,-1.8 0.9941,0 1.8,0.806 1.8,1.8" /></g></g><g
       id="g132"><g
         id="g134"><path
           id="path136"
           style="fill:#8b0000;fill-opacity:1;fill-rule:evenodd;stroke:none"
           d="m 113.8,660 c 0,0.994 -0.806,1.8 -1.8,1.8 -0.994,0 -1.8,-0.806 -1.8,-1.8 0,-0.994 0.806,-1.8 1.8,-1.8 0.994,0 1.8,0.806 1.8,1.8" /></g></g><g
       id="g138"><g
         id="g140"><path
           id="path142"
           style="fill:#8b0000;fill-opacity:1;fill-rule:evenodd;stroke:none"
           d="m 101.8,672 c 0,0.994 -0.806,1.8 -1.8,1.8 -0.9941,0 -1.8,-0.806 -1.8,-1.8 0,-0.994 0.8059,-1.8 1.8,-1.8 0.994,0 1.8,0.806 1.8,1.8" /></g></g><g
       id="g144"><g
         id="g146"><path
           id="path148"
           style="fill:#8b0000;fill-opacity:1;fill-rule:evenodd;stroke:none"
           d="m 153.8,680 c 0,0.994 -0.806,1.8 -1.8,1.8 -0.994,0 -1.8,-0.806 -1.8,-1.8 0,-0.994 0.806,-1.8 1.8,-1.8 0.994,0 1.8,0.806 1.8,1.8" /></g></g><g
       id="g150"><g
         id="g152"><path
           id="path154"
           style="fill:#8b0000;fill-opacity:1;fill-rule:evenodd;stroke:none"
           d="m 149.8,692 c 0,0.994 -0.806,1.8 -1.8,1.8 -0.994,0 -1.8,-0.806 -1.8,-1.8 0,-0.994 0.806,-1.8 1.8,-1.8 0.994,0 1.8,0.806 1.8,1.8" /></g></g><g
       id="g156"><g
         id="g158"><path
           id="path160"
           style="fill:#8b0000;fill-opacity:1;fill-rule:evenodd;stroke:none"
           d="m 169.8,696 c 0,0.994 -0.806,1.8 -1.8,1.8 -0.994,0 -1.8,-0.806 -1.8,-1.8 0,-0.994 0.806,-1.8 1.8,-1.8 0.994,0 1.8,0.806 1.8,1.8" /></g></g><g
       id="g162"><g
         id="g164"><path
           id="path166"
           style="fill:#8b0000;fill-opacity:1;fill-rule:evenodd;stroke:none"
           d="m 137.8,728 c 0,0.994 -0.806,1.8 -1.8,1.8 -0.994,0 -1.8,-0.806 -1.8,-1.8 0,-0.994 0.806,-1.8 1.8,-1.8 0.994,0 1.8,0.806 1.8,1.8" /></g></g><g
       id="g168"><g
         id="g170"><path
           id="path172"
           style="fill:#8b0000;fill-opacity:1;fill-rule:evenodd;stroke:none"
           d="m 149.8,708 c 0,0.994 -0.806,1.8 -1.8,1.8 -0.994,0 -1.8,-0.806 -1.8,-1.8 0,-0.994 0.806,-1.8 1.8,-1.8 0.994,0 1.8,0.806 1.8,1.8" /></g></g><g
       id="g174"><g
         id="g176"><path
           id="path178"
           style="fill:#8b0000;fill-opacity:1;fill-rule:evenodd;stroke:none"
           d="m 137.8,712 c 0,0.994 -0.806,1.8 -1.8,1.8 -0.994,0 -1.8,-0.806 -1.8,-1.8 0,-0.994 0.806,-1.8 1.8,-1.8 0.994,0 1.8,0.806 1.8,1.8" /></g></g><g
       id="g180"><g
         id="g182"><path
           id="path184"
           style="fill:#8b0000;fill-opacity:1;fill-rule:evenodd;stroke:none"
           d="m 149.8,724 c 0,0.994 -0.806,1.8 -1.8,1.8 -0.994,0 -1.8,-0.806 -1.8,-1.8 0,-0.994 0.806,-1.8 1.8,-1.8 0.994,0 1.8,0.806 1.8,1.8" /></g></g><g
       id="g186"><g
         id="g188"><path
           id="path190"
           style="fill:#8b0000;fill-opacity:1;fill-rule:evenodd;stroke:none"
           d="m 133.8,684 c 0,0.994 -0.806,1.8 -1.8,1.8 -0.994,0 -1.8,-0.806 -1.8,-1.8 0,-0.994 0.806,-1.8 1.8,-1.8 0.994,0 1.8,0.806 1.8,1.8" /></g></g><g
       id="g192"><g
         id="g194"><path
           id="path196"
           style="fill:#8b0000;fill-opacity:1;fill-rule:evenodd;stroke:none"
           d="m 141.8,664 c 0,0.994 -0.806,1.8 -1.8,1.8 -0.994,0 -1.8,-0.806 -1.8,-1.8 0,-0.994 0.806,-1.8 1.8,-1.8 0.994,0 1.8,0.806 1.8,1.8" /></g></g><g
       id="g198"><g
         id="g200"><path
           id="path202"
           style="fill:#8b0000;fill-opacity:1;fill-rule:evenodd;stroke:none"
           d="m 81.8,692 c 0,0.994 -0.8059,1.8 -1.8,1.8 -0.9941,0 -1.8,-0.806 -1.8,-1.8 0,-0.994 0.8059,-1.8 1.8,-1.8 0.9941,0 1.8,0.806 1.8,1.8" /></g></g><g
       id="g204"><g
         id="g206"><path
           id="path208"
           style="fill:#8b0000;fill-opacity:1;fill-rule:evenodd;stroke:none"
           d="m 89.8,684 c 0,0.994 -0.8059,1.8 -1.8,1.8 -0.9941,0 -1.8,-0.806 -1.8,-1.8 0,-0.994 0.8059,-1.8 1.8,-1.8 0.9941,0 1.8,0.806 1.8,1.8" /></g></g><g
       id="g210"><g
         id="g212"><path
           id="path214"
           style="fill:#8b0000;fill-opacity:1;fill-rule:evenodd;stroke:none"
           d="m 77.8,680 c 0,0.994 -0.8059,1.8 -1.8,1.8 -0.9941,0 -1.8,-0.806 -1.8,-1.8 0,-0.994 0.8059,-1.8 1.8,-1.8 0.9941,0 1.8,0.806 1.8,1.8" /></g></g><g
       id="g216"><path
         id="path218"
         style="fill:none;stroke:#000080;stroke-width:0.40000001;stroke-linecap:butt;stroke-linejoin:round;stroke-miterlimit:10;stroke-dasharray:none;stroke-opacity:1"
         d="m 92,744 c -16,-40 -2,-50 6.3333,-55 8.3337,-5 10.9997,-5 14.3337,-3.667 3.333,1.334 7.333,4 10,7.334 2.666,3.333 4,7.333 2.666,12 -1.333,4.666 -5.333,10 -7.333,14 -2,4 -2,6.666 -0.667,9.333 1.334,2.667 4,5.333 6.667,7.333 2.667,2 5.333,3.334 9.333,3.334 4,0 9.334,-1.334 14.667,-4.667 5.333,-3.333 10.667,-8.667 15.333,-10 4.667,-1.333 8.667,1.333 10,6 1.334,4.667 0,11.333 -3.333,16 -3.333,4.667 -8.667,7.333 -16.667,10 -8,2.667 -18.666,5.333 -30,4.667 C 112,760 100,756 92,744" /></g><g
       id="g220"><path
         id="path222"
         style="fill:none;stroke:#8b0000;stroke-width:0.40000001;stroke-linecap:butt;stroke-linejoin:round;stroke-miterlimit:10;stroke-dasharray:none;stroke-opacity:1"
         d="m 84,700 c -12,0 -12,-8 -12,-13.333 0,-5.334 0,-8 1.3333,-11.334 1.3334,-3.333 4,-7.333 9.3334,-12 C 88,658.667 96,653.333 106,650.667 116,648 128,648 139.333,652 c 11.334,4 22,12 27.334,22.667 5.333,10.666 5.333,24 2.666,32.666 C 166.667,716 161.333,720 156,724 c -5.333,4 -10.667,8 -15.333,8.667 -4.667,0.666 -8.667,-2 -11.334,-4 -2.666,-2 -4,-3.334 -4.666,-4.667 -0.667,-1.333 -0.667,-2.667 0,-5.333 0.666,-2.667 2,-6.667 4,-10.667 2,-4 4.666,-8 5.333,-11.333 0.667,-3.334 -0.667,-6 -2.667,-8.667 -2,-2.667 -4.666,-5.333 -9.333,-7.333 -4.667,-2 -11.333,-3.334 -16,-2.667 -4.667,0.667 -7.3333,3.333 -10.6667,7.667 C 92,690 88,696 84,700" /></g><g
       id="g224"><path
         id="path226"
         style="fill:none;stroke:#000000;stroke-width:0.40000001;stroke-linecap:butt;stroke-linejoin:round;stroke-miterlimit:10;stroke-dasharray:4;stroke-dashoffset:0;stroke-opacity:1"
         d="m 352,704 c 0,35.346 -28.654,64 -64,64 -35.346,0 -64,-28.654 -64,-64 0,-35.346 28.654,-64 64,-64 35.346,0 64,28.654 64,64" /></g><g
       transform="translate(281.613,778.118)"
       id="g228"><g
         id="g230"><g
           clip-path="url(#clipPath236)"
           id="g232"><g
             transform="translate(0,-780.236)"
             id="g238"><text
               id="text242"
               style="font-variant:normal;font-weight:normal;font-size:17.2154007px;font-family:CMMI12;-inkscape-font-specification:CMMI12;writing-mode:lr-tb;fill:#000000;fill-opacity:1;fill-rule:nonzero;stroke:none"
               transform="matrix(1,0,0,-1,0,780.236)"><tspan
                 id="tspan240"
                 y="0"
                 x="0">Z</tspan></text>
</g></g></g></g><g
       id="g244"><path
         id="path246"
         style="fill:none;stroke:#000000;stroke-width:0.40000001;stroke-linecap:butt;stroke-linejoin:round;stroke-miterlimit:10;stroke-dasharray:none;stroke-opacity:1"
         d="m 160,760 c 31.111,10.667 64.889,10.667 96,0" /><g
         id="g248"><g
           id="g250"><path
             id="path252"
             style="fill:#000000;fill-opacity:1;fill-rule:evenodd;stroke:#000000;stroke-width:0.40000001;stroke-linecap:butt;stroke-linejoin:round;stroke-miterlimit:10;stroke-dasharray:none;stroke-opacity:1"
             d="m 256,760 -5.866,4.475 -1.512,-4.41 z" /></g></g></g><g
       id="g254"><path
         id="path256"
         style="fill:none;stroke:#000000;stroke-width:0.40000001;stroke-linecap:butt;stroke-linejoin:round;stroke-miterlimit:10;stroke-dasharray:none;stroke-opacity:1"
         d="m 256,648 c -31.111,-10.667 -64.889,-10.667 -96,0" /><g
         id="g258"><g
           id="g260"><path
             id="path262"
             style="fill:#000000;fill-opacity:1;fill-rule:evenodd;stroke:#000000;stroke-width:0.40000001;stroke-linecap:butt;stroke-linejoin:round;stroke-miterlimit:10;stroke-dasharray:none;stroke-opacity:1"
             d="m 160,648 5.866,-4.475 1.512,4.41 z" /></g></g></g><g
       transform="translate(180.469,770.687)"
       id="g264"><g
         id="g266"><g
           clip-path="url(#clipPath272)"
           id="g268"><g
             transform="translate(0,-781.373)"
             id="g274"><text
               id="text278"
               style="font-variant:normal;font-weight:normal;font-size:11.9552002px;font-family:CMMI12;-inkscape-font-specification:CMMI12;writing-mode:lr-tb;fill:#000000;fill-opacity:1;fill-rule:nonzero;stroke:none"
               transform="matrix(1,0,0,-1,0,783.698)"><tspan
                 id="tspan276"
                 y="0"
                 x="0">f</tspan></text>
<text
               id="text282"
               style="font-variant:normal;font-weight:normal;font-size:11.9552002px;font-family:CMR12;-inkscape-font-specification:CMR12;writing-mode:lr-tb;fill:#000000;fill-opacity:1;fill-rule:nonzero;stroke:none"
               transform="matrix(1,0,0,-1,10.367,783.698)"><tspan
                 id="tspan280"
                 y="0"
                 x="0">:</tspan></text>
<text
               id="text286"
               style="font-variant:normal;font-weight:normal;font-size:11.9552002px;font-family:CMMI12;-inkscape-font-specification:CMMI12;writing-mode:lr-tb;fill:#000000;fill-opacity:1;fill-rule:nonzero;stroke:none"
               transform="matrix(1,0,0,-1,16.94,783.698)"><tspan
                 id="tspan284"
                 y="0"
                 x="0">X</tspan></text>
<text
               id="text290"
               style="font-variant:normal;font-weight:normal;font-size:11.9552002px;font-family:CMSY10;-inkscape-font-specification:CMSY10;writing-mode:lr-tb;fill:#000000;fill-opacity:1;fill-rule:nonzero;stroke:none"
               transform="matrix(1,0,0,-1,30.916,783.698)"><tspan
                 id="tspan288"
                 y="0"
                 x="0">→</tspan></text>
<text
               id="text294"
               style="font-variant:normal;font-weight:normal;font-size:11.9552002px;font-family:CMMI12;-inkscape-font-specification:CMMI12;writing-mode:lr-tb;fill:#000000;fill-opacity:1;fill-rule:nonzero;stroke:none"
               transform="matrix(1,0,0,-1,46.192,783.698)"><tspan
                 id="tspan292"
                 y="0"
                 x="0">Z</tspan></text>
</g></g></g></g><g
       transform="translate(174.81,626.101)"
       id="g296"><g
         id="g298"><g
           clip-path="url(#clipPath304)"
           id="g300"><g
             transform="translate(0,-780.201)"
             id="g306"><text
               id="text310"
               style="font-variant:normal;font-weight:normal;font-size:11.9552002px;font-family:CMMI12;-inkscape-font-specification:CMMI12;writing-mode:lr-tb;fill:#000000;fill-opacity:1;fill-rule:nonzero;stroke:none"
               transform="matrix(1,0,0,-1,0,782.526)"><tspan
                 id="tspan308"
                 y="0"
                 x="0">f</tspan></text>
<text
               id="text314"
               style="font-variant:normal;font-weight:normal;font-size:7.97009993px;font-family:CMSY8;-inkscape-font-specification:CMSY8;writing-mode:lr-tb;fill:#000000;fill-opacity:1;fill-rule:nonzero;stroke:none"
               transform="matrix(1,0,0,-1,7.046,786.864)"><tspan
                 id="tspan312"
                 y="0"
                 x="0">−</tspan></text>
<text
               id="text318"
               style="font-variant:normal;font-weight:normal;font-size:7.97009993px;font-family:CMR8;-inkscape-font-specification:CMR8;writing-mode:lr-tb;fill:#000000;fill-opacity:1;fill-rule:nonzero;stroke:none"
               transform="matrix(1,0,0,-1,13.633,786.864)"><tspan
                 id="tspan316"
                 y="0"
                 x="0">1</tspan></text>
<text
               id="text322"
               style="font-variant:normal;font-weight:normal;font-size:11.9552002px;font-family:CMR12;-inkscape-font-specification:CMR12;writing-mode:lr-tb;fill:#000000;fill-opacity:1;fill-rule:nonzero;stroke:none"
               transform="matrix(1,0,0,-1,21.686,782.526)"><tspan
                 id="tspan320"
                 y="0"
                 x="0">:</tspan></text>
<text
               id="text326"
               style="font-variant:normal;font-weight:normal;font-size:11.9552002px;font-family:CMMI12;-inkscape-font-specification:CMMI12;writing-mode:lr-tb;fill:#000000;fill-opacity:1;fill-rule:nonzero;stroke:none"
               transform="matrix(1,0,0,-1,28.259,782.526)"><tspan
                 id="tspan324"
                 y="0"
                 x="0">Z</tspan></text>
<text
               id="text330"
               style="font-variant:normal;font-weight:normal;font-size:11.9552002px;font-family:CMSY10;-inkscape-font-specification:CMSY10;writing-mode:lr-tb;fill:#000000;fill-opacity:1;fill-rule:nonzero;stroke:none"
               transform="matrix(1,0,0,-1,40.45,782.526)"><tspan
                 id="tspan328"
                 y="0"
                 x="0">→</tspan></text>
<text
               id="text334"
               style="font-variant:normal;font-weight:normal;font-size:11.9552002px;font-family:CMMI12;-inkscape-font-specification:CMMI12;writing-mode:lr-tb;fill:#000000;fill-opacity:1;fill-rule:nonzero;stroke:none"
               transform="matrix(1,0,0,-1,55.726,782.526)"><tspan
                 id="tspan332"
                 y="0"
                 x="0">X</tspan></text>
</g></g></g></g><g
       id="g336"><g
         id="g338"><path
           id="path340"
           style="fill:#000080;fill-opacity:1;fill-rule:evenodd;stroke:none"
           d="m 241.8,712 c 0,0.994 -0.806,1.8 -1.8,1.8 -0.994,0 -1.8,-0.806 -1.8,-1.8 0,-0.994 0.806,-1.8 1.8,-1.8 0.994,0 1.8,0.806 1.8,1.8" /></g></g><g
       id="g342"><g
         id="g344"><path
           id="path346"
           style="fill:#000080;fill-opacity:1;fill-rule:evenodd;stroke:none"
           d="m 341.8,712 c 0,0.994 -0.806,1.8 -1.8,1.8 -0.994,0 -1.8,-0.806 -1.8,-1.8 0,-0.994 0.806,-1.8 1.8,-1.8 0.994,0 1.8,0.806 1.8,1.8" /></g></g><g
       id="g348"><g
         id="g350"><path
           id="path352"
           style="fill:#000080;fill-opacity:1;fill-rule:evenodd;stroke:none"
           d="m 317.8,716 c 0,0.994 -0.806,1.8 -1.8,1.8 -0.994,0 -1.8,-0.806 -1.8,-1.8 0,-0.994 0.806,-1.8 1.8,-1.8 0.994,0 1.8,0.806 1.8,1.8" /></g></g><g
       id="g354"><g
         id="g356"><path
           id="path358"
           style="fill:#000080;fill-opacity:1;fill-rule:evenodd;stroke:none"
           d="m 313.8,736 c 0,0.994 -0.806,1.8 -1.8,1.8 -0.994,0 -1.8,-0.806 -1.8,-1.8 0,-0.994 0.806,-1.8 1.8,-1.8 0.994,0 1.8,0.806 1.8,1.8" /></g></g><g
       id="g360"><g
         id="g362"><path
           id="path364"
           style="fill:#000080;fill-opacity:1;fill-rule:evenodd;stroke:none"
           d="m 277.8,744 c 0,0.994 -0.806,1.8 -1.8,1.8 -0.994,0 -1.8,-0.806 -1.8,-1.8 0,-0.994 0.806,-1.8 1.8,-1.8 0.994,0 1.8,0.806 1.8,1.8" /></g></g><g
       id="g366"><g
         id="g368"><path
           id="path370"
           style="fill:#000080;fill-opacity:1;fill-rule:evenodd;stroke:none"
           d="m 261.8,720 c 0,0.994 -0.806,1.8 -1.8,1.8 -0.994,0 -1.8,-0.806 -1.8,-1.8 0,-0.994 0.806,-1.8 1.8,-1.8 0.994,0 1.8,0.806 1.8,1.8" /></g></g><g
       id="g372"><g
         id="g374"><path
           id="path376"
           style="fill:#000080;fill-opacity:1;fill-rule:evenodd;stroke:none"
           d="m 289.8,732 c 0,0.994 -0.806,1.8 -1.8,1.8 -0.994,0 -1.8,-0.806 -1.8,-1.8 0,-0.994 0.806,-1.8 1.8,-1.8 0.994,0 1.8,0.806 1.8,1.8" /></g></g><g
       id="g378"><g
         id="g380"><path
           id="path382"
           style="fill:#000080;fill-opacity:1;fill-rule:evenodd;stroke:none"
           d="m 297.8,716 c 0,0.994 -0.806,1.8 -1.8,1.8 -0.994,0 -1.8,-0.806 -1.8,-1.8 0,-0.994 0.806,-1.8 1.8,-1.8 0.994,0 1.8,0.806 1.8,1.8" /></g></g><g
       id="g384"><g
         id="g386"><path
           id="path388"
           style="fill:#000080;fill-opacity:1;fill-rule:evenodd;stroke:none"
           d="m 277.8,716 c 0,0.994 -0.806,1.8 -1.8,1.8 -0.994,0 -1.8,-0.806 -1.8,-1.8 0,-0.994 0.806,-1.8 1.8,-1.8 0.994,0 1.8,0.806 1.8,1.8" /></g></g><g
       id="g390"><g
         id="g392"><path
           id="path394"
           style="fill:#000080;fill-opacity:1;fill-rule:evenodd;stroke:none"
           d="m 269.8,736 c 0,0.994 -0.806,1.8 -1.8,1.8 -0.994,0 -1.8,-0.806 -1.8,-1.8 0,-0.994 0.806,-1.8 1.8,-1.8 0.994,0 1.8,0.806 1.8,1.8" /></g></g><g
       id="g396"><g
         id="g398"><path
           id="path400"
           style="fill:#000080;fill-opacity:1;fill-rule:evenodd;stroke:none"
           d="m 277.8,760 c 0,0.994 -0.806,1.8 -1.8,1.8 -0.994,0 -1.8,-0.806 -1.8,-1.8 0,-0.994 0.806,-1.8 1.8,-1.8 0.994,0 1.8,0.806 1.8,1.8" /></g></g><g
       id="g402"><g
         id="g404"><path
           id="path406"
           style="fill:#000080;fill-opacity:1;fill-rule:evenodd;stroke:none"
           d="m 301.8,744 c 0,0.994 -0.806,1.8 -1.8,1.8 -0.994,0 -1.8,-0.806 -1.8,-1.8 0,-0.994 0.806,-1.8 1.8,-1.8 0.994,0 1.8,0.806 1.8,1.8" /></g></g><g
       id="g408"><g
         id="g410"><path
           id="path412"
           style="fill:#000080;fill-opacity:1;fill-rule:evenodd;stroke:none"
           d="m 257.8,740 c 0,0.994 -0.806,1.8 -1.8,1.8 -0.994,0 -1.8,-0.806 -1.8,-1.8 0,-0.994 0.806,-1.8 1.8,-1.8 0.994,0 1.8,0.806 1.8,1.8" /></g></g><g
       id="g414"><g
         id="g416"><path
           id="path418"
           style="fill:#000080;fill-opacity:1;fill-rule:evenodd;stroke:none"
           d="m 313.8,752 c 0,0.994 -0.806,1.8 -1.8,1.8 -0.994,0 -1.8,-0.806 -1.8,-1.8 0,-0.994 0.806,-1.8 1.8,-1.8 0.994,0 1.8,0.806 1.8,1.8" /></g></g><g
       id="g420"><g
         id="g422"><path
           id="path424"
           style="fill:#000080;fill-opacity:1;fill-rule:evenodd;stroke:none"
           d="m 301.8,728 c 0,0.994 -0.806,1.8 -1.8,1.8 -0.994,0 -1.8,-0.806 -1.8,-1.8 0,-0.994 0.806,-1.8 1.8,-1.8 0.994,0 1.8,0.806 1.8,1.8" /></g></g><g
       id="g426"><g
         id="g428"><path
           id="path430"
           style="fill:#8b0000;fill-opacity:1;fill-rule:evenodd;stroke:none"
           d="m 245.8,696 c 0,0.994 -0.806,1.8 -1.8,1.8 -0.994,0 -1.8,-0.806 -1.8,-1.8 0,-0.994 0.806,-1.8 1.8,-1.8 0.994,0 1.8,0.806 1.8,1.8" /></g></g><g
       id="g432"><g
         id="g434"><path
           id="path436"
           style="fill:#8b0000;fill-opacity:1;fill-rule:evenodd;stroke:none"
           d="m 265.8,680 c 0,0.994 -0.806,1.8 -1.8,1.8 -0.994,0 -1.8,-0.806 -1.8,-1.8 0,-0.994 0.806,-1.8 1.8,-1.8 0.994,0 1.8,0.806 1.8,1.8" /></g></g><g
       id="g438"><g
         id="g440"><path
           id="path442"
           style="fill:#8b0000;fill-opacity:1;fill-rule:evenodd;stroke:none"
           d="m 281.8,696 c 0,0.994 -0.806,1.8 -1.8,1.8 -0.994,0 -1.8,-0.806 -1.8,-1.8 0,-0.994 0.806,-1.8 1.8,-1.8 0.994,0 1.8,0.806 1.8,1.8" /></g></g><g
       id="g444"><g
         id="g446"><path
           id="path448"
           style="fill:#8b0000;fill-opacity:1;fill-rule:evenodd;stroke:none"
           d="m 265.8,692 c 0,0.994 -0.806,1.8 -1.8,1.8 -0.994,0 -1.8,-0.806 -1.8,-1.8 0,-0.994 0.806,-1.8 1.8,-1.8 0.994,0 1.8,0.806 1.8,1.8" /></g></g><g
       id="g450"><g
         id="g452"><path
           id="path454"
           style="fill:#8b0000;fill-opacity:1;fill-rule:evenodd;stroke:none"
           d="m 305.8,676 c 0,0.994 -0.806,1.8 -1.8,1.8 -0.994,0 -1.8,-0.806 -1.8,-1.8 0,-0.994 0.806,-1.8 1.8,-1.8 0.994,0 1.8,0.806 1.8,1.8" /></g></g><g
       id="g456"><g
         id="g458"><path
           id="path460"
           style="fill:#8b0000;fill-opacity:1;fill-rule:evenodd;stroke:none"
           d="m 313.8,696 c 0,0.994 -0.806,1.8 -1.8,1.8 -0.994,0 -1.8,-0.806 -1.8,-1.8 0,-0.994 0.806,-1.8 1.8,-1.8 0.994,0 1.8,0.806 1.8,1.8" /></g></g><g
       id="g462"><g
         id="g464"><path
           id="path466"
           style="fill:#8b0000;fill-opacity:1;fill-rule:evenodd;stroke:none"
           d="m 285.8,684 c 0,0.994 -0.806,1.8 -1.8,1.8 -0.994,0 -1.8,-0.806 -1.8,-1.8 0,-0.994 0.806,-1.8 1.8,-1.8 0.994,0 1.8,0.806 1.8,1.8" /></g></g><g
       id="g468"><g
         id="g470"><path
           id="path472"
           style="fill:#8b0000;fill-opacity:1;fill-rule:evenodd;stroke:none"
           d="m 289.8,664 c 0,0.994 -0.806,1.8 -1.8,1.8 -0.994,0 -1.8,-0.806 -1.8,-1.8 0,-0.994 0.806,-1.8 1.8,-1.8 0.994,0 1.8,0.806 1.8,1.8" /></g></g><g
       id="g474"><g
         id="g476"><path
           id="path478"
           style="fill:#8b0000;fill-opacity:1;fill-rule:evenodd;stroke:none"
           d="m 257.8,676 c 0,0.994 -0.806,1.8 -1.8,1.8 -0.994,0 -1.8,-0.806 -1.8,-1.8 0,-0.994 0.806,-1.8 1.8,-1.8 0.994,0 1.8,0.806 1.8,1.8" /></g></g><g
       id="g480"><g
         id="g482"><path
           id="path484"
           style="fill:#8b0000;fill-opacity:1;fill-rule:evenodd;stroke:none"
           d="m 329.8,684 c 0,0.994 -0.806,1.8 -1.8,1.8 -0.994,0 -1.8,-0.806 -1.8,-1.8 0,-0.994 0.806,-1.8 1.8,-1.8 0.994,0 1.8,0.806 1.8,1.8" /></g></g><g
       id="g486"><g
         id="g488"><path
           id="path490"
           style="fill:#8b0000;fill-opacity:1;fill-rule:evenodd;stroke:none"
           d="m 305.8,668 c 0,0.994 -0.806,1.8 -1.8,1.8 -0.994,0 -1.8,-0.806 -1.8,-1.8 0,-0.994 0.806,-1.8 1.8,-1.8 0.994,0 1.8,0.806 1.8,1.8" /></g></g><g
       id="g492"><g
         id="g494"><path
           id="path496"
           style="fill:#8b0000;fill-opacity:1;fill-rule:evenodd;stroke:none"
           d="m 309.8,684 c 0,0.994 -0.806,1.8 -1.8,1.8 -0.994,0 -1.8,-0.806 -1.8,-1.8 0,-0.994 0.806,-1.8 1.8,-1.8 0.994,0 1.8,0.806 1.8,1.8" /></g></g><g
       id="g498"><g
         id="g500"><path
           id="path502"
           style="fill:#8b0000;fill-opacity:1;fill-rule:evenodd;stroke:none"
           d="m 281.8,672 c 0,0.994 -0.806,1.8 -1.8,1.8 -0.994,0 -1.8,-0.806 -1.8,-1.8 0,-0.994 0.806,-1.8 1.8,-1.8 0.994,0 1.8,0.806 1.8,1.8" /></g></g><g
       id="g504"><g
         id="g506"><path
           id="path508"
           style="fill:#8b0000;fill-opacity:1;fill-rule:evenodd;stroke:none"
           d="m 265.8,672 c 0,0.994 -0.806,1.8 -1.8,1.8 -0.994,0 -1.8,-0.806 -1.8,-1.8 0,-0.994 0.806,-1.8 1.8,-1.8 0.994,0 1.8,0.806 1.8,1.8" /></g></g><g
       id="g510"><g
         id="g512"><path
           id="path514"
           style="fill:#8b0000;fill-opacity:1;fill-rule:evenodd;stroke:none"
           d="m 257.8,672 c 0,0.994 -0.806,1.8 -1.8,1.8 -0.994,0 -1.8,-0.806 -1.8,-1.8 0,-0.994 0.806,-1.8 1.8,-1.8 0.994,0 1.8,0.806 1.8,1.8" /></g></g><g
       id="g516"><path
         id="path518"
         style="fill:none;stroke:#000000;stroke-width:1.20000005;stroke-linecap:butt;stroke-linejoin:round;stroke-miterlimit:10;stroke-dasharray:4, 2, 1, 2;stroke-dashoffset:0;stroke-opacity:1"
         d="M 228,704 H 348" /></g><g
       id="g520"><path
         id="path522"
         style="fill:none;stroke:#000000;stroke-width:0.40000001;stroke-linecap:butt;stroke-linejoin:round;stroke-miterlimit:10;stroke-dasharray:none;stroke-opacity:1"
         d="m 328,704 v 32" /><g
         id="g524"><g
           id="g526"><path
             id="path528"
             style="fill:#000000;fill-opacity:1;fill-rule:evenodd;stroke:#000000;stroke-width:0.40000001;stroke-linecap:butt;stroke-linejoin:round;stroke-miterlimit:10;stroke-dasharray:none;stroke-opacity:1"
             d="m 328,736 -2.331,-7 h 4.662 z" /></g></g></g><g
       id="g530"><path
         id="path532"
         style="fill:none;stroke:#000000;stroke-width:0.40000001;stroke-linecap:butt;stroke-linejoin:round;stroke-miterlimit:10;stroke-dasharray:none;stroke-opacity:1"
         d="m 328,708 h 4 v -4" /></g><g
       transform="translate(332,714.07)"
       id="g534"><g
         id="g536"><g
           clip-path="url(#clipPath542)"
           id="g538"><g
             transform="translate(0,-783.144)"
             id="g544"><text
               id="text548"
               style="font-variant:normal;font-weight:normal;font-size:9.96259975px;font-family:CMMI10;-inkscape-font-specification:CMMI10;writing-mode:lr-tb;fill:#000000;fill-opacity:1;fill-rule:nonzero;stroke:none"
               transform="matrix(1,0,0,-1,0,785.081)"><tspan
                 id="tspan546"
                 y="0"
                 x="0">β</tspan></text>
</g></g></g></g><g
       id="g550"><g
         id="g552"><path
           id="path554"
           style="fill:#ffa500;fill-opacity:1;fill-rule:evenodd;stroke:none"
           d="m 153.8,736 c 0,0.994 -0.806,1.8 -1.8,1.8 -0.994,0 -1.8,-0.806 -1.8,-1.8 0,-0.994 0.806,-1.8 1.8,-1.8 0.994,0 1.8,0.806 1.8,1.8" /></g></g><g
       id="g556"><path
         id="path558"
         style="fill:none;stroke:#ffa500;stroke-width:0.40000001;stroke-linecap:butt;stroke-linejoin:round;stroke-miterlimit:10;stroke-dasharray:none;stroke-opacity:1"
         d="m 152,736 c 32.579,14.192 70.092,11.191 100,-8" /><g
         id="g560"><g
           id="g562"><path
             id="path564"
             style="fill:#ffa500;fill-opacity:1;fill-rule:evenodd;stroke:#ffa500;stroke-width:0.40000001;stroke-linecap:butt;stroke-linejoin:round;stroke-miterlimit:10;stroke-dasharray:none;stroke-opacity:1"
             d="m 252,728 -4.633,5.742 -2.517,-3.924 z" /></g></g></g><g
       id="g566"><path
         id="path568"
         style="fill:none;stroke:#ffa500;stroke-width:0.40000001;stroke-linecap:butt;stroke-linejoin:round;stroke-miterlimit:10;stroke-dasharray:none;stroke-opacity:1"
         d="M 252,728 V 704" /><g
         id="g570"><g
           id="g572"><path
             id="path574"
             style="fill:#ffa500;fill-opacity:1;fill-rule:evenodd;stroke:#ffa500;stroke-width:0.40000001;stroke-linecap:butt;stroke-linejoin:round;stroke-miterlimit:10;stroke-dasharray:none;stroke-opacity:1"
             d="m 252,704 2.331,7 h -4.662 z" /></g></g></g><g
       transform="translate(192.599,746.023)"
       id="g576"><g
         id="g578"><g
           clip-path="url(#clipPath584)"
           id="g580"><g
             transform="translate(0,-780.045)"
             id="g586"><text
               id="text590"
               style="font-variant:normal;font-weight:normal;font-size:11.9552002px;font-family:CMMI12;-inkscape-font-specification:CMMI12;writing-mode:lr-tb;fill:#ffa500;fill-opacity:1;fill-rule:nonzero;stroke:none"
               transform="matrix(1,0,0,-1,0,783.034)"><tspan
                 id="tspan588"
                 y="0"
                 x="0">f</tspan></text>
<text
               id="text594"
               style="font-variant:normal;font-weight:normal;font-size:11.9552002px;font-family:CMR12;-inkscape-font-specification:CMR12;writing-mode:lr-tb;fill:#ffa500;fill-opacity:1;fill-rule:nonzero;stroke:none"
               transform="matrix(1,0,0,-1,7.046,783.034)"><tspan
                 id="tspan592"
                 y="0"
                 x="0">(</tspan></text>
<text
               id="text598"
               style="font-variant:normal;font-weight:normal;font-size:11.9552002px;font-family:CMMI12;-inkscape-font-specification:CMMI12;writing-mode:lr-tb;fill:#ffa500;fill-opacity:1;fill-rule:nonzero;stroke:none"
               transform="matrix(1,0,0,-1,11.599,783.034)"><tspan
                 id="tspan596"
                 y="0"
                 x="0">x</tspan></text>
<text
               id="text602"
               style="font-variant:normal;font-weight:normal;font-size:11.9552002px;font-family:CMR12;-inkscape-font-specification:CMR12;writing-mode:lr-tb;fill:#ffa500;fill-opacity:1;fill-rule:nonzero;stroke:none"
               transform="matrix(1,0,0,-1,18.251,783.034)"><tspan
                 id="tspan600"
                 y="0"
                 x="0">)</tspan></text>
</g></g></g></g><g
       id="g604"><path
         id="path606"
         style="fill:none;stroke:#ffa500;stroke-width:0.40000001;stroke-linecap:butt;stroke-linejoin:round;stroke-miterlimit:10;stroke-dasharray:none;stroke-opacity:1"
         d="m 252,704 c -37.163,-11.649 -77.709,-0.732 -104,28" /><g
         id="g608"><g
           id="g610"><path
             id="path612"
             style="fill:#ffa500;fill-opacity:1;fill-rule:evenodd;stroke:#ffa500;stroke-width:0.40000001;stroke-linecap:butt;stroke-linejoin:round;stroke-miterlimit:10;stroke-dasharray:none;stroke-opacity:1"
             d="m 148,732 3.006,-6.738 3.439,3.147 z" /></g></g></g><g
       transform="translate(191.279,685.768)"
       id="g614"><g
         id="g616"><g
           clip-path="url(#clipPath622)"
           id="g618"><g
             transform="translate(0,-779.536)"
             id="g624"><text
               id="text628"
               style="font-variant:normal;font-weight:normal;font-size:11.9552002px;font-family:CMMI12;-inkscape-font-specification:CMMI12;writing-mode:lr-tb;fill:#ffa500;fill-opacity:1;fill-rule:nonzero;stroke:none"
               transform="matrix(1,0,0,-1,0,782.525)"><tspan
                 id="tspan626"
                 y="0"
                 x="0">f</tspan></text>
<text
               id="text632"
               style="font-variant:normal;font-weight:normal;font-size:7.97009993px;font-family:CMSY8;-inkscape-font-specification:CMSY8;writing-mode:lr-tb;fill:#ffa500;fill-opacity:1;fill-rule:nonzero;stroke:none"
               transform="matrix(1,0,0,-1,7.046,786.863)"><tspan
                 id="tspan630"
                 y="0"
                 x="0">−</tspan></text>
<text
               id="text636"
               style="font-variant:normal;font-weight:normal;font-size:7.97009993px;font-family:CMR8;-inkscape-font-specification:CMR8;writing-mode:lr-tb;fill:#ffa500;fill-opacity:1;fill-rule:nonzero;stroke:none"
               transform="matrix(1,0,0,-1,13.633,786.863)"><tspan
                 id="tspan634"
                 y="0"
                 x="0">1</tspan></text>
<text
               id="text640"
               style="font-variant:normal;font-weight:normal;font-size:11.9552002px;font-family:CMR12;-inkscape-font-specification:CMR12;writing-mode:lr-tb;fill:#ffa500;fill-opacity:1;fill-rule:nonzero;stroke:none"
               transform="matrix(1,0,0,-1,18.365,782.525)"><tspan
                 id="tspan638"
                 y="0"
                 x="0">(</tspan></text>
<text
               id="text644"
               style="font-variant:normal;font-weight:normal;font-size:11.9552002px;font-family:CMMI12;-inkscape-font-specification:CMMI12;writing-mode:lr-tb;fill:#ffa500;fill-opacity:1;fill-rule:nonzero;stroke:none"
               transform="matrix(1,0,0,-1,22.918,782.525)"><tspan
                 id="tspan642"
                 y="0"
                 x="0">z</tspan></text>
<text
               id="text648"
               style="font-variant:normal;font-weight:normal;font-size:11.9552002px;font-family:CMR12;-inkscape-font-specification:CMR12;writing-mode:lr-tb;fill:#ffa500;fill-opacity:1;fill-rule:nonzero;stroke:none"
               transform="matrix(1,0,0,-1,28.888,782.525)"><tspan
                 id="tspan646"
                 y="0"
                 x="0">)</tspan></text>
</g></g></g></g><g
       id="g650"><g
         id="g652"><path
           id="path654"
           style="fill:#ffa500;fill-opacity:1;fill-rule:evenodd;stroke:none"
           d="m 253.8,728 c 0,0.994 -0.806,1.8 -1.8,1.8 -0.994,0 -1.8,-0.806 -1.8,-1.8 0,-0.994 0.806,-1.8 1.8,-1.8 0.994,0 1.8,0.806 1.8,1.8" /></g></g><g
       id="g656"><path
         id="path658"
         style="fill:none;stroke:#ffa500;stroke-width:0.40000001;stroke-linecap:butt;stroke-linejoin:round;stroke-miterlimit:10;stroke-dasharray:none;stroke-opacity:1"
         d="m 252,708 h 4 v -4" /></g></g></svg>